<svg width="77" height="80" viewBox="0 0 77 80" fill="none" xmlns="http://www.w3.org/2000/svg">
<path d="M72.6193 18.1719L43.1478 1.15073C40.5474 -0.383577 37.2728 -0.383577 34.6724 1.15073L4.18958 19.035C1.63731 20.5214 0.0481561 23.2543 0.0481561 26.2271L0 54.0364C0 56.9611 1.54099 59.6941 4.09327 61.2284L33.6129 78.825C36.2134 80.3593 39.488 80.4073 42.0884 78.873L72.4267 61.4682C75.0271 59.9818 76.6163 57.2488 76.6163 54.2761L76.7608 25.4599C76.8089 22.4392 75.2198 19.6583 72.6193 18.1719ZM38.2359 56.194L10.6425 40.5153L38.9101 23.7338L66.648 39.6522L38.2359 56.194Z" fill="url(#paint0_linear_2200_3145)"/>
<defs>
<linearGradient id="paint0_linear_2200_3145" x1="38.3973" y1="0.00129457" x2="38.3973" y2="79.9848" gradientUnits="userSpaceOnUse">
<stop offset="0.00130897" stop-color="#C44B97"/>
<stop offset="1" stop-color="#434A9F"/>
</linearGradient>
</defs>
</svg>
